<mxfile host="app.diagrams.net" agent="Mozilla/5.0 (X11; Linux x86_64; rv:128.0) Gecko/20100101 Firefox/128.0" version="28.0.3">
  <diagram name="Page-1" id="29k8tJNFjMVcJw45ttvh">
    <mxGraphModel dx="927" dy="642" grid="1" gridSize="10" guides="1" tooltips="1" connect="1" arrows="1" fold="1" page="1" pageScale="1" pageWidth="850" pageHeight="1100" math="0" shadow="0">
      <root>
        <mxCell id="0" />
        <mxCell id="1" parent="0" />
        <mxCell id="AHvNTb4SEqQ8RB98fS8S-4" style="edgeStyle=orthogonalEdgeStyle;rounded=0;orthogonalLoop=1;jettySize=auto;html=1;exitX=0.5;exitY=1;exitDx=0;exitDy=0;entryX=0.5;entryY=0;entryDx=0;entryDy=0;" edge="1" parent="1" source="AHvNTb4SEqQ8RB98fS8S-2" target="AHvNTb4SEqQ8RB98fS8S-3">
          <mxGeometry relative="1" as="geometry" />
        </mxCell>
        <mxCell id="AHvNTb4SEqQ8RB98fS8S-2" value="Game Init" style="rounded=1;whiteSpace=wrap;html=1;" vertex="1" parent="1">
          <mxGeometry x="365" y="210" width="120" height="60" as="geometry" />
        </mxCell>
        <mxCell id="AHvNTb4SEqQ8RB98fS8S-7" style="edgeStyle=orthogonalEdgeStyle;rounded=0;orthogonalLoop=1;jettySize=auto;html=1;exitX=0;exitY=0.5;exitDx=0;exitDy=0;entryX=1;entryY=0.5;entryDx=0;entryDy=0;" edge="1" parent="1" source="AHvNTb4SEqQ8RB98fS8S-3" target="AHvNTb4SEqQ8RB98fS8S-6">
          <mxGeometry relative="1" as="geometry" />
        </mxCell>
        <mxCell id="AHvNTb4SEqQ8RB98fS8S-8" value="Score too big?" style="edgeLabel;html=1;align=center;verticalAlign=middle;resizable=0;points=[];" vertex="1" connectable="0" parent="AHvNTb4SEqQ8RB98fS8S-7">
          <mxGeometry x="0.0724" relative="1" as="geometry">
            <mxPoint x="6" as="offset" />
          </mxGeometry>
        </mxCell>
        <mxCell id="AHvNTb4SEqQ8RB98fS8S-10" style="edgeStyle=orthogonalEdgeStyle;rounded=0;orthogonalLoop=1;jettySize=auto;html=1;exitX=0.5;exitY=1;exitDx=0;exitDy=0;entryX=0.5;entryY=0;entryDx=0;entryDy=0;" edge="1" parent="1" source="AHvNTb4SEqQ8RB98fS8S-3" target="AHvNTb4SEqQ8RB98fS8S-9">
          <mxGeometry relative="1" as="geometry" />
        </mxCell>
        <mxCell id="AHvNTb4SEqQ8RB98fS8S-3" value="Increase Score" style="rounded=1;whiteSpace=wrap;html=1;" vertex="1" parent="1">
          <mxGeometry x="365" y="340" width="120" height="60" as="geometry" />
        </mxCell>
        <mxCell id="AHvNTb4SEqQ8RB98fS8S-6" value="Return Win" style="rounded=1;whiteSpace=wrap;html=1;" vertex="1" parent="1">
          <mxGeometry x="150" y="340" width="120" height="60" as="geometry" />
        </mxCell>
        <mxCell id="AHvNTb4SEqQ8RB98fS8S-12" style="edgeStyle=orthogonalEdgeStyle;rounded=0;orthogonalLoop=1;jettySize=auto;html=1;exitX=0.5;exitY=1;exitDx=0;exitDy=0;entryX=0.5;entryY=0;entryDx=0;entryDy=0;" edge="1" parent="1" source="AHvNTb4SEqQ8RB98fS8S-9" target="AHvNTb4SEqQ8RB98fS8S-11">
          <mxGeometry relative="1" as="geometry" />
        </mxCell>
        <mxCell id="AHvNTb4SEqQ8RB98fS8S-9" value="Do Pattern" style="rounded=1;whiteSpace=wrap;html=1;" vertex="1" parent="1">
          <mxGeometry x="365" y="470" width="120" height="60" as="geometry" />
        </mxCell>
        <mxCell id="AHvNTb4SEqQ8RB98fS8S-13" style="edgeStyle=orthogonalEdgeStyle;rounded=0;orthogonalLoop=1;jettySize=auto;html=1;exitX=1;exitY=0.5;exitDx=0;exitDy=0;entryX=1;entryY=0.5;entryDx=0;entryDy=0;" edge="1" parent="1" source="AHvNTb4SEqQ8RB98fS8S-11" target="AHvNTb4SEqQ8RB98fS8S-3">
          <mxGeometry relative="1" as="geometry" />
        </mxCell>
        <mxCell id="AHvNTb4SEqQ8RB98fS8S-14" value="Correct" style="edgeLabel;html=1;align=center;verticalAlign=middle;resizable=0;points=[];" vertex="1" connectable="0" parent="AHvNTb4SEqQ8RB98fS8S-13">
          <mxGeometry x="-0.0024" y="-1" relative="1" as="geometry">
            <mxPoint as="offset" />
          </mxGeometry>
        </mxCell>
        <mxCell id="AHvNTb4SEqQ8RB98fS8S-16" style="edgeStyle=orthogonalEdgeStyle;rounded=0;orthogonalLoop=1;jettySize=auto;html=1;exitX=0;exitY=0.5;exitDx=0;exitDy=0;entryX=1;entryY=0.5;entryDx=0;entryDy=0;" edge="1" parent="1" source="AHvNTb4SEqQ8RB98fS8S-11" target="AHvNTb4SEqQ8RB98fS8S-15">
          <mxGeometry relative="1" as="geometry" />
        </mxCell>
        <mxCell id="AHvNTb4SEqQ8RB98fS8S-17" value="Incorrect" style="edgeLabel;html=1;align=center;verticalAlign=middle;resizable=0;points=[];" vertex="1" connectable="0" parent="AHvNTb4SEqQ8RB98fS8S-16">
          <mxGeometry x="-0.0479" y="1" relative="1" as="geometry">
            <mxPoint as="offset" />
          </mxGeometry>
        </mxCell>
        <mxCell id="AHvNTb4SEqQ8RB98fS8S-11" value="Listen for switches" style="rounded=1;whiteSpace=wrap;html=1;" vertex="1" parent="1">
          <mxGeometry x="365" y="600" width="120" height="60" as="geometry" />
        </mxCell>
        <mxCell id="AHvNTb4SEqQ8RB98fS8S-15" value="Return Lose" style="rounded=1;whiteSpace=wrap;html=1;" vertex="1" parent="1">
          <mxGeometry x="150" y="600" width="120" height="60" as="geometry" />
        </mxCell>
      </root>
    </mxGraphModel>
  </diagram>
</mxfile>
